<?xml version="1.0" standalone="no"?>
<!DOCTYPE svg PUBLIC "-//W3C//DTD SVG 20010904//EN"
 "http://www.w3.org/TR/2001/REC-SVG-20010904/DTD/svg10.dtd">
<svg version="1.0" xmlns="http://www.w3.org/2000/svg"
 width="300.000000pt" height="300.000000pt" viewBox="0 0 300.000000 300.000000"
 preserveAspectRatio="xMidYMid meet">
<metadata>
Created by potrace 1.11, written by Peter Selinger 2001-2013
</metadata>
<g transform="translate(0.000000,300.000000) scale(0.100000,-0.100000)"
fill="#000000" stroke="none">
<path d="M1745 2303 c-172 -11 -314 -42 -432 -94 -24 -11 -46 -19 -49 -19 -15
0 -123 -72 -159 -107 -74 -70 -136 -167 -149 -234 -2 -8 -7 -23 -12 -34 -5
-11 -9 -90 -9 -175 1 -146 3 -164 39 -307 21 -84 42 -156 47 -159 5 -3 7 -9 4
-14 -3 -5 7 -46 22 -92 14 -46 27 -90 29 -98 1 -8 6 -29 12 -46 9 -29 7 -33
-43 -77 -30 -26 -64 -66 -77 -89 -13 -23 -31 -42 -40 -44 -129 -18 -219 -149
-186 -272 11 -40 53 -95 79 -104 18 -6 14 -174 -6 -246 -10 -34 -22 -65 -26
-68 -35 -21 43 -24 649 -24 l658 0 0 65 c-1 35 3 60 7 56 5 -5 10 -15 11 -22
1 -8 11 -33 22 -56 l19 -43 117 0 c65 0 118 4 118 9 0 5 -4 11 -9 13 -9 3 -89
165 -96 195 -3 10 -11 45 -20 78 -15 59 -15 60 8 80 41 37 67 94 71 155 6 96
-51 190 -146 240 -21 11 -38 17 -38 13 0 -5 -4 -2 -9 5 -5 8 -28 15 -55 15
-40 2 -47 5 -55 29 -6 15 -21 39 -34 52 l-24 24 41 12 c23 7 59 20 81 30 22 9
69 30 105 46 112 49 111 47 105 139 -8 120 -27 299 -39 365 -3 14 -7 45 -10
70 -3 25 -8 56 -11 70 -5 27 -13 79 -20 135 -17 130 -79 378 -102 409 -43 57
-147 101 -268 112 -33 3 -64 6 -70 7 -5 1 -28 1 -50 0z"/>
</g>
</svg>
